<?xml version="1.0" encoding="utf-8"?><!-- Uploaded to: SVG Repo, www.svgrepo.com, Generator: SVG Repo Mixer Tools -->
<svg fill="#000000" width="800px" height="800px" viewBox="0 0 24 24" id="month-left" data-name="Flat Line" xmlns="http://www.w3.org/2000/svg" class="icon flat-line"><path id="secondary" d="M3,9v6H9v6H20a1,1,0,0,0,1-1V9Z" style="fill: rgb(44, 169, 188); stroke-width: 2;"></path><path id="primary" d="M4,4H20a1,1,0,0,1,1,1V20a1,1,0,0,1-1,1H9L3,15V5A1,1,0,0,1,4,4ZM3,15l6,6V15ZM3,5V9H21V5a1,1,0,0,0-1-1H4A1,1,0,0,0,3,5ZM7,3V5m5-2V5m5-2V5" style="fill: none; stroke: rgb(0, 0, 0); stroke-linecap: round; stroke-linejoin: round; stroke-width: 2;"></path></svg>